<svg xmlns="http://www.w3.org/2000/svg" viewBox="0 0 538.6 538.6"><path fill="#0679b3" d="M349.8 262.4c-9.1 21.2-21.5 39.6-37.1 55.2s-33.9 28-54.9 37.1c-21 9.1-43.5 13.7-67.6 13.7-24.1 0-46.6-4.6-67.6-13.7-21-9.1-39.3-21.5-54.9-37.1s-28-34-37.1-55.2c-9.1-21.2-13.7-43.6-13.7-67.4 0-24.1 4.6-46.6 13.7-67.6 9.1-21 21.5-39.3 37.1-54.9s33.9-28 54.9-37.1c21-9.1 43.5-13.7 67.6-13.7 24.1 0 46.6 4.6 67.6 13.7 21 9.1 39.3 21.5 54.9 37.1s28 33.9 37.1 54.9c9.1 21 13.7 43.5 13.7 67.6 0 23.8-4.6 46.3-13.7 67.4zm-159.7 65.5c18.2 0 35.4-3.5 51.5-10.5s30.2-16.5 42.2-28.6c12-12 21.6-26.1 28.6-42.2s10.5-33.3 10.5-51.5c0-18.6-3.5-35.9-10.5-52s-16.5-30.1-28.6-42c-12-11.9-26.1-21.3-42.2-28.3s-33.3-10.5-51.5-10.5c-18.2 0-35.4 3.5-51.5 10.5s-30.2 16.4-42.2 28.3c-12 11.9-21.6 25.9-28.6 42s-10.5 33.4-10.5 52c0 18.2 3.5 35.4 10.5 51.5s16.5 30.2 28.6 42.2c12 12 26.1 21.6 42.2 28.6s33.3 10.5 51.5 10.5zm315.5 111.3c7.5 7.5 11.2 16.6 11.2 27.3s-3.7 19.7-11.2 26.9l-11.2 11.2c-7.5 7.5-16.5 11.2-27.1 11.2-10.6 0-19.6-3.7-27.1-11.2L303.9 367.9c13-8.5 24.9-18.3 35.6-29.5s20-23.5 27.8-36.9l138.3 137.7z"/></svg>