<svg xmlns="http://www.w3.org/2000/svg" viewBox="0 0 538.6 538.6"><path fill="#fb0" d="M501.2 218.5c0 2-.7 4.1-2 6.3-1.3 2.3-3.1 4.7-5.4 7.3l-102.1 99.6 23.9 140.6c0 .7.1 1.5.2 2.4.2 1 .2 2.1.2 3.4 0 2-.2 3.7-.7 5.4-.5 1.6-1.2 3.1-2.2 4.4-1 1.6-2.2 2.8-3.7 3.4-1.5.6-3.2 1-5.1 1-1.6 0-3.4-.3-5.4-1-2-.7-3.9-1.5-5.9-2.4l-126.5-66.4L140.3 489c-2 1-3.9 1.8-5.9 2.4-2 .6-3.7 1-5.4 1-2 0-3.7-.3-5.1-1-1.5-.7-2.7-1.8-3.7-3.4-1-1.3-1.7-2.8-2.2-4.4-.5-1.6-.7-3.4-.7-5.4v-2.4c0-.9.2-2.1.5-3.4l23.9-140.6-102.4-99.6c-2.3-2.6-4-5-5.1-7.3-1.1-2.3-1.7-4.4-1.7-6.3 0-3.6 1.3-6.4 3.9-8.5 2.6-2.1 6.5-3.7 11.7-4.6L189.7 185l63.5-127.9c1.6-3.9 3.6-6.8 5.9-8.8 2.3-2 4.9-2.9 7.8-2.9s5.5 1 7.8 2.9c2.3 2 4.2 4.9 5.9 8.8L344.1 185l141.6 20.5c5.2 1 9.1 2.5 11.7 4.6 2.5 2 3.8 4.8 3.8 8.4z"/></svg>