<svg xmlns="http://www.w3.org/2000/svg" viewBox="0 0 118.902 84.223"><path d="M4.955 49.541c0 9.197 5.019 17.205 12.46 21.481l-6.331 6.329a4.034 4.034 0 0 0 0 5.692 4.014 4.014 0 0 0 2.85 1.18 4.014 4.014 0 0 0 2.845-1.18l9.06-9.063c1.272.203 2.562.335 3.885.335h59.451c1.325 0 2.613-.132 3.886-.335l9.061 9.063a4.014 4.014 0 0 0 2.85 1.18 4.013 4.013 0 0 0 2.845-1.18 4.034 4.034 0 0 0 0-5.692l-6.331-6.329c7.442-4.276 12.46-12.284 12.46-21.481v-9.907H4.955v9.907zm108.992-22.293H17.34V14.863c0-5.768 4.082-8.052 7.43-8.052a8.048 8.048 0 0 1 8.049 8.052h6.817C39.636 6.653 32.981 0 24.771 0 16.566 0 9.905 6.653 9.905 14.863v12.385h-4.95A4.952 4.952 0 0 0 0 32.203v2.475h118.902v-2.475a4.952 4.952 0 0 0-4.955-4.955z" fill="#595858"/></svg>