<svg xmlns="http://www.w3.org/2000/svg" viewBox="0 0 76.165 118.741"><path d="M56.176 59.35c-19.219 1.679-33.777.73-38.402-.976-.092.201-.554 1.99-.554 1.99-7.5 11.67-1.975 55.47-1.975 55.47 20.143 6.354 43.425.31 43.425.31s1.662-17.837 1.662-29.23c0-9.911-3.637-25.197-3.637-25.197a6.254 6.254 0 0 1-.519-2.367zm12.227-45.085C63.009 8.301 53.68 8.448 53.68 8.448 53.409 1.031 41.303 0 36.614 0c-4.688 0-11.695 1.999-13.207 3.76-1.229 1.432-2.187 4.023-2.252 4.081l-2.535.607C4.785 10.584 3.813 23.014 3.813 23.014S1.609 44.508.661 51.887C-.287 59.265.064 76.886.064 76.886c4.807 1.202 10.222 0 10.222 0s.297 1.448.442-2.75c.142-4.198.972-10.797.972-10.797 2.366-11.501 1.68-22.719 1.68-22.719.95 2.658 4.034 12.364 4.034 12.364 1.211 1.158 1.402 2.174 1.32 2.898 0 0 29.998 2.492 38.583-.32l.376-2.066c-.076-4.988 4.668-12.048 4.668-12.048-.597 5.034 1.808 21.664 2.263 24.364.453 2.7 1.047 11.107 1.047 11.107 4.122 1.516 10.222 0 10.222 0l.272-5.539c0-.001-2.368-51.152-7.762-57.115zm-18.525-2.943s-.233 6.357-7.429 16.09C38.262 33.076 32.477 43.99 29.6 51.457c-.533 1.382-.95 4.093-2.062 4.093h-.004c-.905 0-.783-1.893-.785-2.826-.02-11.674 3.556-21.761 5.354-25.618l4.648-8.714c.814-1.38 7.044-10.629 4.601-11.536-4.961-1.841-9.815.025-9.815.025-1.146.515-.487 3.956 1.713 6.334 1.101 1.189.147 2.926.147 2.926l-2.379 4.466s-.996 1.924-2.355.098c-3.729-5.012-4.687-10.37-4.579-9.889 0 0-1.646-6.205 6.67-8.273 0 0 13.257-2.825 17.941 3.127 0 .001 1.647 1.617 1.183 5.652z" fill="#59595c"/></svg>