<svg xmlns="http://www.w3.org/2000/svg" viewBox="0 0 109.648 118.516"><path d="M84.25 16.133a80.608 80.608 0 0 0-3.114-2.45l-.007.001-.001-.004a75.553 75.553 0 0 0-3.255-2.252C54.135-4.104 24.056-3.466 1.303 11.289c-1.618 1.056-1.768 3.424-.232 4.612l.099.074c.232.164.463.328.688.497 9.464 6.978 14.594 17.636 14.9 28.543.007.335.028.671.027 1.01a2.7 2.7 0 0 0 1.103 2.168l.024.015c.539.394 1.22.601 1.941.54.11-.009.227-.013.329-.02a43.055 43.055 0 0 1 24.611 5.488L27.914 77.108l-24.425 33.13a5.195 5.195 0 0 0 1.098 7.261 5.187 5.187 0 0 0 7.262-1.098l21.344-28.949 19.96-27.071a43.048 43.048 0 0 1 12.521 21.881c.016.108.049.217.078.323a2.876 2.876 0 0 0 1.099 1.707 2.7 2.7 0 0 0 2.409.417c.323-.1.645-.178.97-.268 10.51-2.932 22.206-1.185 31.671 5.792.232.167.457.341.683.513l.051.043c1.561 1.151 3.825.414 4.352-1.462 7.425-26.118-.852-55.098-22.737-73.194zm-3.555 10.193c1.5 18.015-3.668 33.795-8.459 44.105a53.107 53.107 0 0 0-17.14-21.444 53.123 53.123 0 0 0-25.57-10.034c8.429-7.622 21.972-17.226 39.654-21.117a74.206 74.206 0 0 1 9.996-1.5 75.288 75.288 0 0 1 1.519 9.99z" fill="#595858"/></svg>