<svg xmlns="http://www.w3.org/2000/svg" viewBox="0 0 92.074 118.191"><path d="M41.783 94.596c-10.564 0-18.73 2.202-22.333 3.491-9.473 3.235-16.487 8.457-19.133 14.62-1.117 2.596.875 5.484 3.708 5.484h75.521c2.827 0 4.83-2.888 3.713-5.484-4.468-10.388-21.342-18.111-41.476-18.111zm49.746-59.872a20.553 20.553 0 0 0-1.031-3.245c-.472-1.182-1.036-2.485-1.866-3.848a31.82 31.82 0 0 0-1.267-2.003 49.554 49.554 0 0 0-1.631-2.068c-.513-.664-1.157-1.278-1.776-1.871l-.196-.187a34.242 34.242 0 0 0-1.061-.986c-.036-.03-.065-.055-.106-.086-.382-.307-.78-.619-1.193-.921l-.282-.211c-.307-.227-.619-.458-.941-.679-.413-.272-.83-.518-1.252-.765l-.181-.106-1.368-.76-.151-.075c-.372-.176-.75-.337-1.137-.503l-.378-.161c-1.907-.835-4.186-1.429-6.746-1.776-.201-.277-.438-.529-.75-.709a17.001 17.001 0 0 0-2.315-1.147 21.627 21.627 0 0 0-1.6-.604 35.472 35.472 0 0 0-1.851-.493c-.599-.161-1.273-.241-1.872-.312l-.181-.02a22.037 22.037 0 0 0-1.042-.111c-.045 0-.086-.005-.131-.005-.357-.01-.724-.015-1.092-.01h-.242c-.281 0-.558.005-.845.015-.362.02-.724.065-1.082.106l-.141.02-.498.065c-.02-.05-.04-.111-.06-.161l-.121-.241c-.13-.272-.266-.544-.402-.805-.03-.05-.055-.095-.091-.146l-.563-.906-.104-.159a16.5 16.5 0 0 0-.599-.88c-.186-.242-.367-.463-.543-.68l-.156-.191a36.379 36.379 0 0 0-.709-.825.8.8 0 0 0-.091-.096 34.494 34.494 0 0 0-.755-.735L51 5.318c-.438-.407-.936-.875-1.509-1.283a33.523 33.523 0 0 0-1.419-1.011 23.28 23.28 0 0 0-1.615-.906c-.991-.543-2.003-.915-2.853-1.207a15.298 15.298 0 0 0-2.445-.639C39.856.026 38.975.005 38.88 0a2.522 2.522 0 0 0-1.992.931c-.272.337-.422.734-.493 1.152a19.716 19.716 0 0 0-2.123-.715l-.382-.111c-.398-.11-.8-.221-1.193-.317-.055-.015-.115-.025-.171-.035L32.133.84 31.026.649 30.78.614a21.267 21.267 0 0 0-1.434-.186c-.412-.03-.8-.045-1.182-.06l-.357-.015c-.503-.02-1.006-.025-1.504-.03-.045 0-.091.005-.091.005a29.66 29.66 0 0 0-1.494.106l-.262.02c-.855.08-1.741.156-2.636.367-.422.086-.915.191-1.388.302-.342.08-.68.166-1.011.251-.498.146-.891.277-1.273.407-.377.131-.744.271-1.102.408-1.454.523-2.707 1.187-3.839 1.826a20.902 20.902 0 0 0-2.847 1.901C8.92 7.029 8.125 7.879 8.034 7.974a2.506 2.506 0 0 0 .644 3.895c.04.025 1.087.593 2.727 1.248l1.575.614 1.122.433.322.121.136.045a2.491 2.491 0 0 0 1.646.03l.201-.065c.352-.111.88-.266 1.509-.413l.312-.07a5.5 5.5 0 0 1 .413-.091c-.015.111-.02.226-.015.342.025 1.026.639 1.947 1.605 2.304l.251.09c.186.071.372.141.558.207.378.111.659.231.936.342.277.115.558.226.84.327.236.095.533.201.83.301h.005c.286.131.573.257.86.372l.216.086c.141.06.277.111.418.166-1.575.01-3.235.196-5.056.624-.639.151-1.273.322-1.897.508-.04.015-.076.025-.116.04-2.54.895-4.724 1.992-6.485 3.26l-.327.226c-.342.242-.68.478-1.002.725-.045.035-.09.07-.131.11l-.709.619-.432.382-.191.166c-.363.327-.725.659-1.052.996-.281.297-.538.588-.79.88l-.241.266c-.332.378-.654.765-.971 1.147-.025.035-.056.071-.08.106-.287.397-.569.795-.836 1.192l-.146.212c-.483.714-.981 1.449-1.388 2.279a43.918 43.918 0 0 0-1.082 2.209 29.246 29.246 0 0 0-.87 2.355C.83 38.019.553 39.413.332 40.69a20.863 20.863 0 0 0-.322 3.407c-.05 1.821.106 2.978.126 3.104a2.486 2.486 0 0 0 1.233 1.816 2.497 2.497 0 0 0 2.189.147c.05-.02 1.147-.468 2.696-1.328l.654-.372 1.856-1.052.292-.176.126-.075a2.5 2.5 0 0 0 1.061-1.258l.076-.201c.186-.458.443-1.051.775-1.711.065-.126.131-.251.191-.377.08.08.166.156.257.226.684.529 1.58.689 2.369.413.151-.05.292-.121.433-.201l.227-.135c.176-.101.347-.201.518-.307.322-.216.594-.362.855-.503.266-.146.528-.292.785-.448.221-.126.488-.286.76-.453v-.005c.282-.141.558-.282.83-.433l.206-.111c.236-.126.478-.257.705-.397.015-.01.1-.041.181-.081a9.43 9.43 0 0 0 .508-.241c.342-.181.724-.488.951-.8l.116-.156c.121-.171.242-.342.367-.508a2.5 2.5 0 0 0 1.761.04l.035-.01.382-.141.689-.257c.277-.076.549-.156.82-.237.422-.126.84-.251 1.268-.352a7.86 7.86 0 0 1 .558-.111c.895-.161 1.71-.302 2.551-.372.211-.02.413-.065.614-.136.207-.071.403-.171.584-.292.362.206.775.322 1.197.317.407 0 .815-.005 1.233.015 1.253.03 2.47.141 3.396.237.825.076 1.6.176 2.339.277l-.684.936-.488.674c-.161.232-.297.413-.437.599-.312.418-.659.891-.996 1.444l-.115.186-1.198 1.912c-.322.534-.654 1.057-.986 1.585-.669 1.061-1.363 2.158-2.042 3.361l-1.243 2.35-1.761 3.34c-.694 1.439-1.313 2.863-1.911 4.236a157.27 157.27 0 0 1-.946 2.153c-.629 1.56-1.167 3.084-1.686 4.558-.262.755-.528 1.509-.805 2.264l-.045.131c-.232.77-.448 1.55-.664 2.33l-.322 1.147c-.116.443-.222.815-.332 1.193-.226.79-.463 1.605-.619 2.485-.116.558-.242 1.162-.372 1.761-.357 1.695-.729 3.447-.926 5.212l-.151 1.067c-.11.759-.216 1.504-.292 2.249l-.161 2.007-.098 1.235c-.096.961-.111 1.912-.126 2.832l-.005.347c-.005.358-.01.68-.02 1.002a32.905 32.905 0 0 0 0 1.987l.001.044c2.995-1.013 7.405-2.209 13.274-2.93l-.013-.284-.015-.337c-.04-.735-.071-1.429-.045-2.118l.035-2.933c.02-.523.071-1.117.116-1.721.03-.377.06-.76.086-1.142.06-1.388.262-2.772.473-4.241.091-.619.181-1.243.262-1.872.065-.604.201-1.197.337-1.826.091-.408.186-.82.262-1.232l.236-1.132c.136-.639.266-1.272.413-1.912.221-.759.437-1.524.654-2.289.378-1.353.735-2.626 1.147-3.879.257-.674.528-1.434.799-2.188a94.926 94.926 0 0 1 1.374-3.678l.257-.573 2.163-4.835c.478-.996 1.031-2.008 1.565-2.989.312-.568.614-1.122.895-1.66l.654-1.218.473-.88c.206-.408.422-.735.634-1.051.151-.237.302-.468.438-.699l.151-.237 1.716-2.707.352-.553.579.387.549.372c.659.453 1.358.931 2.052 1.454a45.678 45.678 0 0 1 2.667 2.083c.357.297.659.573.961.845.317.297.7.493 1.112.589.101.408.302.79.599 1.101.573.614 1.081 1.268 1.6 1.937.402.493.735 1.042 1.086 1.615.146.242.297.483.448.724l.352.669.181.342c.292.558.779.976 1.348 1.182-.02.231-.04.428-.065.624l-.02.191c-.045.393.005.79.146 1.162.091.246.166.417.242.594.035.08.075.161.1.247.06.186.146.443.236.699l.086.236c.091.277.201.569.317.855l.005.01c.086.307.176.614.282.915.06.216.156.498.257.785.1.286.206.568.277.865.08.277.136.468.196.654l.08.257a2.506 2.506 0 0 0 2.204 1.756c.115.01.236.01.352.005-.035.115-.065.231-.095.342a23.083 23.083 0 0 1-.594 1.856l-.045.111c-.201.529-.241 1.157-.075 1.695l.045.136.095.322.906 2.727c.584 1.695 1.097 2.767 1.117 2.812a2.51 2.51 0 0 0 1.726 1.363 2.538 2.538 0 0 0 2.138-.523c.096-.086.986-.84 2.194-2.254a20.909 20.909 0 0 0 2.028-2.737c.684-1.077 1.414-2.294 2.027-3.763.242-.549.578-1.338.886-2.199.271-.865.503-1.685.719-2.536.236-.81.358-1.685.478-2.54l.035-.262c.065-.468.126-.951.176-1.439.005-.045.01-.091.01-.136.02-.493.045-.996.045-1.504l.005-.352c.005-.387.01-.775 0-1.162-.015-.493-.065-.976-.115-1.464l-.02-.207-.181-1.554a1.956 1.956 0 0 0-.025-.171 29.2 29.2 0 0 0-.261-1.208l-.091-.402c-.453-2.108-1.338-4.382-2.626-6.752-1.55-2.545-3.099-4.457-4.799-5.941a24.371 24.371 0 0 0-3.069-2.345l.02-.01c.201-.071.392-.166.568-.287.176.151.322.287.468.418l.146.131c.292.266.639.457 1.016.558.262.075.448.115.629.156.091.02.176.036.262.061.186.065.443.146.704.221l.242.071c.282.086.584.166.886.242l.005.005c.297.106.599.211.911.307.206.076.493.161.785.247.292.086.584.171.86.282.272.1.458.166.649.226l.251.08a2.475 2.475 0 0 0 1.63-.005 2.513 2.513 0 0 0 1.293-1.031c.076.09.151.186.227.277.483.599.855 1.127 1.157 1.57l.07.11c.307.473.785.86 1.323 1.042l.135.05.317.106.654.206 2.088.654c1.71.523 2.883.734 2.933.744.428.075.865.035 1.268-.1.307-.111.599-.277.845-.503.573-.513.88-1.268.825-2.037-.016-.124-.106-1.292-.544-3.098z" fill="#595858"/></svg>