<svg xmlns="http://www.w3.org/2000/svg" viewBox="0 0 102.781 118.664"><path d="M42.371 55.488l9.726 7.429 8.602-7.429c-5.474-2.122-18.328 0-18.328 0zm9.02-6.041c13.657 0 24.728-11.064 24.728-24.721C76.119 11.068 65.048 0 51.391 0c-13.657 0-24.72 11.068-24.72 24.727 0 13.656 11.063 24.72 24.72 24.72zm16.576 7.502c-1.182-.301-9.706 7.372-10.848 9.203 0 0 3.016 3.494 3.023 3.557l3.028 30.26c.011.115-10.317 8.324-10.317 8.324a.452.452 0 0 1-.299.128.425.425 0 0 1-.299-.128l-10.091-7.294c-.085-.085 3.206-31.219 3.249-31.271l2.768-3.594c-1.131-1.818-12.797-9.344-14.104-8.994C14.223 62.465 0 77.137 0 98.381c0 27.043 102.781 27.043 102.781 0 0-21.506-14.571-36.276-34.814-41.432zm-17.74 16.147l-2.045 24.786 4.079 5.36 4.858-4.904-2.812-25.509-1.656-4.897-2.424 5.164z" fill="#595858"/></svg>