<svg xmlns="http://www.w3.org/2000/svg" viewBox="0 0 118.807 108.73"><path d="M50.901 57.867H3.004A3.013 3.013 0 0 0 0 60.871v44.279a3.013 3.013 0 0 0 3.004 3.004H50.9a3.013 3.013 0 0 0 3.004-3.004V60.871a3.012 3.012 0 0 0-3.003-3.004zm-15.319 38.69h-1.075a2.004 2.004 0 0 1-1.909-1.395l-1.557-4.877a2.004 2.004 0 0 0-1.909-1.395h-5.638c-.883 0-1.661.577-1.918 1.422l-1.464 4.823a2.003 2.003 0 0 1-1.918 1.422h-.865a2.005 2.005 0 0 1-1.909-2.616l7.386-23.045a2.004 2.004 0 0 1 1.909-1.393h3.382c.868 0 1.638.559 1.906 1.385l7.486 23.045a2.006 2.006 0 0 1-1.907 2.624zm-7.958-18.063c-.52-1.644-.961-3.491-1.363-5.056h-.082c-.402 1.565-.801 3.451-1.284 5.056l-1.27 4.06a2.004 2.004 0 0 0 1.913 2.603h1.47a2.004 2.004 0 0 0 1.909-2.614l-1.293-4.049zm26.159-60.4a33.287 33.287 0 0 0-.859-.118 2 2 0 0 0-2.22 1.693l-.531 3.526a2.003 2.003 0 0 0 1.684 2.28l.519.078c3.374.508 5.516-.793 5.857-3.058.376-2.498-1.354-3.935-4.45-4.401zm-2.025 11.018l-.439-.066a2.004 2.004 0 0 0-2.28 1.684l-.735 4.883a1.997 1.997 0 0 0 1.634 2.272c.205.034.421.068.649.103 3.135.472 6.09-.303 6.586-3.597.467-3.095-2.041-4.771-5.415-5.279zm66.997 67.164l-8.22-43.509a3.013 3.013 0 0 0-3.51-2.394l-31.048 5.866a2.99 2.99 0 0 0 1.44-2.134l6.328-43.824a3.014 3.014 0 0 0-2.544-3.403L33.796.031a3.014 3.014 0 0 0-3.403 2.544l-6.328 43.824a3.014 3.014 0 0 0 2.544 3.403l47.287 6.829-13.935 2.633a3.013 3.013 0 0 0-2.394 3.51l8.22 43.509a3.013 3.013 0 0 0 3.51 2.394l47.064-8.892a3.012 3.012 0 0 0 2.394-3.509zM63.238 22.683c-.37 2.459-2.258 4.489-5.315 5.126l-.012.078c2.711 1.138 4.955 3.75 4.4 7.441-.359 2.382-1.67 4.091-3.409 5.129-2.157 1.381-5.418 1.743-10.301 1.008a51.24 51.24 0 0 1-4.141-.792 2.006 2.006 0 0 1-1.528-2.251l3.435-22.826a2.01 2.01 0 0 1 2.066-1.705c1.548.055 3.49.231 5.377.515 3.613.543 5.771 1.315 7.406 2.859 1.514 1.24 2.363 3.156 2.022 5.418zm35.99 68.15c-1.227.599-2.914 1.206-4.915 1.636-8.396 1.807-14.631-2.355-16.361-10.4-1.874-8.71 3.036-15.268 11.12-17.008 1.861-.401 3.461-.506 4.688-.464 1.111.038 1.961 1.007 1.897 2.117l-.006.101a1.989 1.989 0 0 1-2.049 1.885 14.082 14.082 0 0 0-3.471.321c-5.377 1.157-8.536 5.366-7.168 11.725 1.249 5.806 5.467 8.799 11.273 7.55a16.153 16.153 0 0 0 3.258-1.078 2.009 2.009 0 0 1 2.688 1.002c.434.987.015 2.14-.954 2.613z" fill="#595858"/></svg>