<svg xmlns="http://www.w3.org/2000/svg" viewBox="0 0 117.551 108.693"><path d="M88.131 11.944l-1.421-.958h-8.883c1.201-.601 2.04-1.828 2.04-3.261V3.661A3.663 3.663 0 0 0 76.2 0H11.343a3.662 3.662 0 0 0-3.662 3.661v.507c0 3.818 2.985 6.949 6.741 7.193-2.128.801-3.65 2.841-3.65 5.251a5.62 5.62 0 0 0 5.621 5.621h66.848c14.473 10.297 23.06 26.053 23.06 42.466a5.623 5.623 0 0 0 5.629 5.621 5.62 5.62 0 0 0 5.62-5.621c.001-20.681-10.997-40.399-29.419-52.755zM75.874 27.699H15.7a3.675 3.675 0 0 0-2.786 1.283C4.589 38.729 0 51.592 0 65.188c0 17.015 7.343 32.977 19.637 42.717a3.672 3.672 0 0 0 2.272.789h47.756c.826 0 1.628-.275 2.279-.789 12.288-9.74 19.631-25.702 19.631-42.717 0-13.596-4.588-26.459-12.914-36.206a3.67 3.67 0 0 0-2.787-1.283zM9.245 56.807c1.277-7.624 4.269-14.691 8.782-20.563h55.524c4.507 5.872 7.505 12.939 8.776 20.563H9.245z" fill="#595858"/></svg>