<svg xmlns="http://www.w3.org/2000/svg" viewBox="0 0 119.695 104.324"><path d="M89.706 29.306c6.913-.016 12.328-5.392 12.359-12.267.03-6.844-5.339-12.335-12.195-12.47-6.746-.134-12.495 5.376-12.608 12.081-.117 7.04 5.42 12.672 12.444 12.656zm12.027 22.017c1.099-6.925-.353-13.371-6.198-16.429-4.607-2.411-9.458-2.129-13.623 1.219-4.915 3.951-5.377 9.287-4.181 15.21h24.002zM47.048 30.876c-2.722 6.97-.245 12.316 6.636 15.797-4.663-9.082-1.222-16.018 4.563-22.72 2.323-2.691 4.036-6.153 5.196-9.547C65.426 8.6 63.852 3.491 59.102 0c3.34 8.565.085 14.361-4.96 19.963-2.88 3.199-5.545 6.942-7.094 10.913zm72.627 18.497c-.001-.993-.13-1.986-.212-3.161h-8.804v5.093c0 12.818-.096 25.637.062 38.454.043 3.546-1.069 5.152-4.736 5.145-30.792-.052-61.585-.047-92.377-.004-3.429.004-4.55-1.458-4.509-4.848.153-12.521.061-25.045.061-37.569v-6.207H.146v5.022c0 12.523.401 25.062-.122 37.564-.459 10.976 5.648 15.524 15.518 15.461 29.613-.192 59.228-.061 88.841-.089a30.982 30.982 0 0 0 5.255-.471c6.281-1.096 10.012-5.508 10.033-11.96.044-14.142.018-28.286.004-42.43zm-82.744-2.269c-5.85-10.124-5.058-16.281 2.992-24.953 2.19-2.358 4.466-4.808 5.926-7.619 1.071-2.063.874-4.785 1.236-7.179-4.083 4.582-7.683 8.469-11.1 12.509-2.633 3.113-5.704 6.103-7.403 9.705-3.578 7.586 1.045 16.667 8.349 17.537zm69.243 7.762H13.798V90.26h92.377V54.866z" fill="#595858"/></svg>