<svg xmlns="http://www.w3.org/2000/svg" viewBox="0 0 119.188 108.977"><path d="M58.86 21.186c-5.38.716-9.149 5.615-8.429 10.948.72 5.328 5.667 9.074 11.042 8.359 5.375-.711 9.154-5.615 8.43-10.943-.717-5.333-5.659-9.079-11.043-8.364zM112.398.939L107.15.101c-4.382-.696-8.561 2.287-9.272 6.637l-.969 5.977C63.92 5.194 32.165 9.971 22.14 11.854l-.828-5.116c-.71-4.349-4.886-7.333-9.272-6.637L6.791.939C2.409 1.645-.603 5.777.103 10.126l2.438 15c.706 4.354 4.881 7.338 9.263 6.632l5.252-.828c4.391-.711 7.399-4.843 6.693-9.192l-.508-3.106c1.652-.306 4.02-.711 6.938-1.125.626 8.387 3.309 19.904 12.016 36.584l8.712 15.038c-.536.635-14.308 21.208-16.172 36.043-.236 1.798 1.158 3.436 3.13 3.751.08.01.165.024.24.033 2.113.207 4.01-1.139 4.246-3.022 1.379-10.948 14.007-25.312 17.97-29.605 4.283 4.664 16.322 18.601 17.664 29.261.155 1.238 1.036 2.231 2.212 2.716.748.49 1.69.744 2.687.65.08-.01.16-.024.235-.033 1.977-.315 3.37-1.953 3.139-3.751-1.864-14.835-15.64-35.408-16.176-36.043l8.721-15.038c8.392-16.082 11.169-27.35 11.922-35.658 1.69.33 3.379.664 5.078 1.059l-.362 2.245c-.716 4.349 2.306 8.481 6.693 9.192l5.243.828c4.387.706 8.566-2.278 9.268-6.632l2.443-15c.704-4.348-2.308-8.48-6.69-9.186zM79.55 34.69c-2.998 4.513-7.069 8.255-12.369 9.352l-.348.094c-.009.01-.094.038-.216.076l-4.754.63c-.442.066-.885.104-1.322.127 0 0-.028.005-.042.005l-.052-.005a13.964 13.964 0 0 1-1.323-.127 3.671 3.671 0 0 0-.79-.009 48.43 48.43 0 0 1-3.125-.405c-.649-.16-1.045-.282-1.054-.292l-.344-.094c-12.223-2.546-15.659-18.944-16.619-26.78 14.304-2.071 27.967-2.005 38.924-1.266 2.847.221 5.695.522 8.509.894-.378 3.958-1.564 11.568-5.075 17.8z" fill="#5a5a5d"/></svg>