<svg xmlns="http://www.w3.org/2000/svg" viewBox="0 0 118.719 89.146"><path d="M89.917 76.764c2.215-21.234 9.182-40.308 19.344-55.037-16.834 8.456-30.19 23.546-37.175 42.134C72.439 39.602 78.154 17.403 87.712 0 73.399 9.047 62.113 23.287 55.573 40.395c.792 2.932 1.944 7.748 2.996 14.265a1.929 1.929 0 0 1-3.809.615C50.524 29.04 27.177 21.392 27.177 21.392c3.8 12.69 6.032 26.711 6.321 41.479-5.85-13.786-19.132-25.038-31.573-31.824 5.077 9.312 9.36 20.577 12.478 33.475C7.038 54.363 0 51.762 0 51.762s15.186 14.273 16.851 37.384h85.016c1.289-16.909 8.907-25.612 16.851-37.831-12.315 5.272-22.448 14.265-28.801 25.449z" fill="#595858"/></svg>