<svg xmlns="http://www.w3.org/2000/svg" viewBox="0 0 118.678 90.975"><path d="M16.135 33.968L0 39.361s3.544 4.161 5.782 10.732c3.625 10.647 8.593 25.232 9.75 28.581 2.115 6.125 4.246 11.098 6.234 12.099 2.819 1.419 4.684-4.875 3.473-11.234-1.213-6.359-9.104-45.571-9.104-45.571zm102.384 21.601L107.932 0 17.216 17.283s11.208 58.852 12.297 64.545c.476 2.49.784 5.946-1.626 8.489 15.26-5.174 76.097-20.928 85.773-24.428 3.742-1.354 5.597-6.444 4.859-10.32zM28.483 24.784l74.148-14.263 1.423 8.817-73.751 15.395-1.82-9.949zm5.275 25.226l38.733-7.378.634 3.322-38.734 7.38-.633-3.324zm1.791 9.397l38.734-7.379.633 3.321-38.735 7.381-.632-3.323zM38.06 72.59l-.633-3.321 38.735-7.381.633 3.322-38.735 7.38zm44.522-8.482L78.28 41.529l28.902-5.507 4.302 22.58-28.902 5.506z" fill="#595858"/></svg>