<svg xmlns="http://www.w3.org/2000/svg" viewBox="0 0 112.9 119.037"><path d="M11.935 98.775c-1.161-1.398-2.087-3.228-3.503-5.991-1.416 2.763-2.342 4.594-3.503 5.991-1.149 1.412-2.656 2.54-4.928 4.266 2.272 1.713 3.776 2.834 4.926 4.241 1.162 1.393 2.089 3.219 3.505 5.97 1.417-2.751 2.344-4.577 3.506-5.97 1.15-1.408 2.655-2.528 4.926-4.241-2.273-1.726-3.78-2.854-4.929-4.266zm28.3-1.047a139.8 139.8 0 0 1-11.057-2.165 139.764 139.764 0 0 1-5.91-1.547 42.102 42.102 0 0 0 19.937 20.754l-.022-.088a140.217 140.217 0 0 1-2.948-16.954zm33.911-42.355c-.275-1.339-.57-2.673-.887-4.002a132.692 132.692 0 0 0-4.791-15.658 40.225 40.225 0 0 0-4.008-.459V0h-5.514v35.247c-1.414.09-2.764.246-4.103.466a132.86 132.86 0 0 0-5.681 19.66 139.628 139.628 0 0 1 24.984 0zm-32.344.856c.41-2.175.87-4.341 1.383-6.494.946-3.97 2.069-7.899 3.36-11.773a42.082 42.082 0 0 0-23.276 22.213 138.608 138.608 0 0 1 18.533-3.946zm39.7 0a138.795 138.795 0 0 1 18.536 3.946A42.08 42.08 0 0 0 76.76 37.96a139.991 139.991 0 0 1 3.36 11.774c.512 2.154.972 4.32 1.382 6.495zM39.614 90.485a140.154 140.154 0 0 1-.246-8.276c0-6.242.421-12.483 1.252-18.669a132.797 132.797 0 0 0-9.807 1.948c-3.431.818-6.83 1.777-10.186 2.866a42.106 42.106 0 0 0-.915 8.743c0 2.998.317 5.921.915 8.741a132.915 132.915 0 0 0 10.186 2.866c2.912.693 5.849 1.285 8.801 1.781zm67.896-54.217c-1.271-1.529-2.283-3.531-3.833-6.554-1.549 3.023-2.562 5.025-3.832 6.554-1.257 1.545-2.906 2.778-5.391 4.666 2.485 1.874 4.131 3.1 5.389 4.639 1.271 1.524 2.285 3.521 3.835 6.531 1.55-3.009 2.564-5.007 3.835-6.531 1.258-1.539 2.904-2.765 5.389-4.639-2.487-1.888-4.135-3.122-5.392-4.666zm-15.02 29.22a132.797 132.797 0 0 0-9.807-1.948 140.26 140.26 0 0 1 1.252 18.669c0 2.76-.083 5.521-.246 8.276a132.166 132.166 0 0 0 8.8-1.782 132.438 132.438 0 0 0 10.19-2.867c.598-2.819.915-5.742.915-8.74s-.317-5.922-.915-8.741a132.54 132.54 0 0 0-10.189-2.867zm-9.422 32.24a139.957 139.957 0 0 1-2.949 16.954l-.022.09a42.101 42.101 0 0 0 19.941-20.756c-1.96.559-3.932 1.076-5.914 1.548-3.653.87-7.343 1.589-11.056 2.164zM61.652 61.864c-4.6 0-9.199.241-13.773.717a133.188 133.188 0 0 0-1.458 19.627c0 3.095.111 6.189.327 9.276 4.947.558 9.925.842 14.904.842 4.979 0 9.957-.284 14.904-.842.216-3.087.327-6.182.327-9.276 0-6.567-.49-13.133-1.458-19.627a133.106 133.106 0 0 0-13.773-.717zM47.446 98.655a133.085 133.085 0 0 0 2.598 14.391c.375 1.571.781 3.135 1.213 4.691 3.324.848 6.808 1.3 10.396 1.3 3.587 0 7.069-.451 10.393-1.299a130.69 130.69 0 0 0 3.811-19.083 140.12 140.12 0 0 1-14.206.724c-4.743 0-9.486-.243-14.205-.724z" fill="#59595c"/></svg>