<svg xmlns="http://www.w3.org/2000/svg" viewBox="0 0 118.457 108.293"><path d="M36.33 78.49l-4.379-5.702L5.923 97.745a5.34 5.34 0 0 0-.145 7.652l1.081 1.105c2.103 2.141 5.604 2.197 7.794.132l26.044-24.963c-1.71-.68-3.248-1.759-4.367-3.181zm26.502-25.128c8.24 8.367 20.746 9.669 27.894 2.899l27.502-26.047-5.088-5.158-22.973 21.768-.038-.032c-.032.032-2.501 2.657-5.196 2.694-1.151.014-2.162-.446-3.244-1.527a2.417 2.417 0 0 1-.344-.307c-1.097-1.11-2.372-3.55 1.344-7.372l23.414-22.179-5.825-5.922-21.272 20.16-.021-.091-1.383 1.372c-2.039 1.993-3.91 2.993-5.578 2.974-1.302-.008-2.216-.659-2.748-1.197a8.447 8.447 0 0 1-.43-.524c-2.528-2.566-.952-5.387.747-7.259L93.448 5.023 88.359-.146 60.874 25.906c-3.485 3.308-5.191 7.993-4.787 13.224.393 5.158 2.797 10.209 6.745 14.232zM10.49 7.586c-1.883-1.929-4.754-2.012-6.68-.202-.215.215-.42.46-.619.726l-2.178 2.975c-1.71 2.329-1.646 5.954.151 8.232l41.519 54.06c1.813 2.289 5.406 3.039 7.998 1.689l2.598-1.361c1.77-.917 4.427-.497 5.809.917l31.337 31.869c2.109 2.152 5.605 2.208 7.794.143l1.13-1.076a5.345 5.345 0 0 0 .134-7.641L10.49 7.586z" fill="#595858"/></svg>