<svg xmlns="http://www.w3.org/2000/svg" viewBox="0 0 119.189 114.151"><path d="M15.11 70.799V46.181H5.039v24.618H15.11zm5.041 15.864V77.85c0-1.638-1.954-3.021-4.265-3.021H4.265C1.954 74.829 0 76.212 0 77.85v8.814c0 1.638 1.954 3.022 4.265 3.022h11.621c2.311-.001 4.265-1.385 4.265-3.023zM4.265 42.153h11.621c2.312 0 4.265-1.384 4.265-3.022v-8.813c0-1.638-1.954-3.021-4.265-3.021H4.265C1.954 27.297 0 28.68 0 30.318v8.813c0 1.638 1.954 3.022 4.265 3.022zM100.214 0h-76.2C13.551 0 5.039 8.513 5.039 18.976v4.292H15.11v-4.292c0-4.91 3.994-8.903 8.903-8.903h76.201c4.909 0 8.902 3.993 8.902 8.903v76.201c0 4.909-3.993 8.902-8.902 8.902h-76.2c-4.909 0-8.903-3.993-8.903-8.902v-1.463H5.039v1.463c0 10.463 8.512 18.974 18.975 18.974h76.201c10.463 0 18.975-8.512 18.975-18.974V18.976C119.189 8.513 110.677 0 100.214 0zm3.529 68.238V48.856a3.68 3.68 0 1 0-7.361 0v19.383a3.68 3.68 0 1 0 7.361-.001zM88.635 56.457c0-15.708-12.779-28.486-28.486-28.486S31.664 40.75 31.664 56.457s12.778 28.485 28.485 28.485c15.707 0 28.486-12.778 28.486-28.485zM61.156 79.881l.001-6.545a16.55 16.55 0 0 0 11.089-4.982l4.484 4.669a23.38 23.38 0 0 1-15.574 6.858zm16.935-8.348l-4.53-4.717a16.512 16.512 0 0 0 3.374-9.352l6.637.001a23.329 23.329 0 0 1-5.481 14.068zm5.482-16.083h-6.668a16.51 16.51 0 0 0-2.855-8.095l4.852-4.959a23.317 23.317 0 0 1 4.671 13.054zM61.157 33.033c6.527.278 12.37 3.234 16.457 7.798l-4.823 4.931a16.55 16.55 0 0 0-11.634-5.582v-7.147zm-2.015 0V40.2a16.537 16.537 0 0 0-10.237 4.529l-5.004-5.156c3.993-3.843 9.336-6.289 15.241-6.54zM42.51 41.032l5.011 5.163a16.537 16.537 0 0 0-3.722 9.255h-7.073a23.346 23.346 0 0 1 5.784-14.418zm-5.784 16.432h7.043a16.528 16.528 0 0 0 3.805 9.915l-5.162 4.388a23.33 23.33 0 0 1-5.686-14.303zm22.416 22.417c-5.958-.253-11.345-2.74-15.348-6.643l5.171-4.397a16.538 16.538 0 0 0 10.177 4.475v6.565zm-.186-29.393v-4.833a1.61 1.61 0 1 1 3.22 0v4.833a1.61 1.61 0 1 1-3.22 0z" fill="#59595c"/></svg>