<svg xmlns="http://www.w3.org/2000/svg" viewBox="0 0 118.67 81.124"><path d="M118.585 28.36V16.03s-13.505 1.866-32.198 35.456h-55.34c-1.022-1.482-2.691-4.47-2.691-8.305 0-4.416 1.569-7.084 2.518-8.305h36.904c8.174 7.663 14.787 13.99 14.787 13.99s8.469-16.585 19.915-26.428c11.182-9.614 16.106-11.325 16.106-11.325s0-5.74-4.137-5.904c-4.812-.191-85.64-5.182-85.64-5.182s-11.546-.722-13.687 5.24l-2.213.001C12.78 5.287 0 7.182 0 20.505c0 5.8 2.329 9.37 5.09 11.507C2.378 34.274 0 37.885 0 43.628c0 5.8 2.329 9.37 5.09 11.507C2.378 57.397 0 61.009 0 66.752c0 11.46 9.074 14.257 12.651 14.372h106.02V28.36h-.086zM13.573 58h9.841c-.888 2.137-1.574 4.888-1.574 8.307 0 3.483.754 6.227 1.642 8.309l-10.621.001c-1.061-.072-6.344-.789-6.344-7.865 0-6.897 5.536-8.455 7.056-8.752zm-.22-23.123h10.061c-.888 2.137-1.574 4.887-1.574 8.305 0 3.278.809 6.077 1.787 8.305h-8.122l-.423.005h-2.255c-1.052-.065-6.311-.743-6.311-7.862.001-7.195 6.025-8.581 6.837-8.753zm84.249 28.809s7.052 7.154 14.239 1.916c.121-.088.201-.169.318-.257v9.262l-81.117.008c-1.03-1.482-2.685-4.447-2.685-8.308 0-4.418 1.569-7.087 2.518-8.307h61.128l5.599 5.686zm-66.73-51.931H42.3c4.645 3.898 11.613 10.228 18.494 16.607l-29.744.003c-1.022-1.481-2.693-4.471-2.693-8.308-.001-4.417 1.571-7.087 2.515-8.302zm-7.459 0c-.888 2.137-1.573 4.885-1.573 8.302 0 3.28.81 6.08 1.789 8.308l-10.787.001c-1.057-.069-6.325-.77-6.325-7.862 0-6.928 5.532-8.46 7.052-8.749h9.844z" fill="#59595c"/></svg>